<svg xmlns="http://www.w3.org/2000/svg" viewBox="0 0 597.87 125.1"><defs><style>.cls-1{isolation:isolate;}.cls-2,.cls-5{fill:#c10a27;}.cls-3{fill:#ffffff;}.cls-4{fill:#cad400;}.cls-5{mix-blend-mode:multiply;}</style></defs><title>RFID-logo1</title><g class="cls-1"><g id="Layer_1" data-name="Layer 1"><path class="cls-2" d="M148.22,72.79H136.91V91.92H125.06V32.75h22.65c14,0,20.57,5.65,20.57,19.64,0,8.74-3.26,13.55-8.57,16.88L168,91.92H155.08ZM147.71,44h-10.8V61.55h11c5.92,0,8.32-3.68,8.32-9C156.2,46.9,153.37,44,147.71,44Z"/><path class="cls-2" d="M177.73,32.75h37.55V44.07h-25.9V61.13h20.76V72.36H189.38V91.92H177.73Z"/><path class="cls-3" d="M224.72,32.75h11.83V91.92H224.72Z"/><path class="cls-3" d="M246,91.92V32.75h19.47c20.32,0,24.79,8.91,24.79,28.47,0,20.07-3.86,30.7-24.79,30.7ZM265.45,44h-7.8v36.7h7.8c11.5,0,12.61-7.29,12.61-19.46C278.06,49.21,277,44,265.45,44Z"/><path class="cls-3" d="M299.67,32.75h37.57V44.07H311.33v13.2h20.76V68.33H311.33V80.59h25.91V91.92H299.67Z"/><path class="cls-3" d="M346.67,32.75h18.6L381.66,77h1.28V32.75h11.83V91.92h-18l-17-44.26H358.5V91.92H346.67Z"/><path class="cls-3" d="M404.22,32.75h42.86v11.4H431.65V91.92H419.82V44.15h-15.6Z"/><path class="cls-3" d="M456.53,32.75h11.82V91.92H456.53Z"/><path class="cls-3" d="M497.52,68.68l-7.89.85V91.92H477.79V32.75h11.84V58.13l7.71-.86L507,32.75h13.63L507.9,62.15l13,29.77H507.29Z"/><path class="cls-3" d="M530.05,32.75h11.83V91.92H530.05Z"/><path class="cls-3" d="M551.32,32.75h42.89v11.4H578.76V91.92H566.93V44.15H551.32Z"/><polygon class="cls-2" points="54.93 3.35 3.66 32.95 72.02 32.95 54.93 3.35"/><polygon class="cls-2" points="106.2 92.16 106.2 32.95 72.02 32.95 106.2 92.16"/><polygon class="cls-4" points="106.2 32.95 54.93 3.35 72.02 32.95 106.2 32.95"/><polygon class="cls-2" points="72.02 32.95 3.66 32.95 106.2 92.16 72.02 32.95"/><polygon class="cls-5" points="72.02 32.95 3.66 32.95 106.2 92.16 72.02 32.95"/><polygon class="cls-2" points="3.66 92.16 54.93 121.75 106.2 92.16 3.66 92.16"/><polygon class="cls-5" points="3.66 92.16 54.93 121.75 106.2 92.16 3.66 92.16"/><polygon class="cls-5" points="3.66 92.16 54.93 121.75 106.2 92.16 3.66 92.16"/><polygon class="cls-5" points="3.66 92.16 54.93 121.75 106.2 92.16 3.66 92.16"/><polygon class="cls-2" points="3.66 32.95 3.66 92.16 106.2 92.16 3.66 32.95"/><polygon class="cls-5" points="3.66 32.95 3.66 92.16 106.2 92.16 3.66 32.95"/><polygon class="cls-5" points="3.66 32.95 3.66 92.16 106.2 92.16 3.66 32.95"/></g></g></svg>